<svg id="StorageCeph" xmlns="http://www.w3.org/2000/svg" xmlns:xlink="http://www.w3.org/1999/xlink" viewBox="0 0 32 32"><defs><linearGradient id="d3mz3j12ha" x1="-1732.835" y1="-613.215" x2="-1718.561" y2="-605.299" gradientTransform="matrix(.491 0 0 1.343 854.912 838.058)" gradientUnits="userSpaceOnUse"><stop offset=".148" stop-opacity="0"/><stop offset=".777"/></linearGradient><linearGradient id="zokr6albnb" x1="1655.422" y1="-3505.285" x2="1669.696" y2="-3497.369" gradientTransform="matrix(.491 0 0 1.343 -791.975 4715.275)" xlink:href="#d3mz3j12ha"/><linearGradient id="2xlppce0bc" x1="-1785.15" y1="-3491.598" x2="-1770.877" y2="-3483.682" gradientTransform="matrix(.518 0 0 1.294 931.698 4539.227)" xlink:href="#d3mz3j12ha"/><linearGradient id="bpveeow57d" x1="2021.463" y1="-670.565" x2="2035.737" y2="-662.649" gradientTransform="matrix(.518 0 0 1.37 -1028.922 918.988)" xlink:href="#d3mz3j12ha"/><mask id="k2w5tx0aee" x="1" y="2" width="30" height="28" maskUnits="userSpaceOnUse"><path d="m26 22.407-10 5.455-9.052-4.938-1 1.733 9.574 5.222a1 1 0 0 0 .958 0l11-6a1 1 0 0 0 .521-.878v-7h-2v6.406zM26.69 7.692 16.479 2.123a1 1 0 0 0-.958 0l-11 6A1 1 0 0 0 4 9.001v7h2V9.595l10-5.456 9.312 5.08 1.378-1.527z" style="fill:#fff"/><g><path style="fill:none;stroke:#fff;stroke-linejoin:round;stroke-width:2px" d="M6.625 21H1M31 11h-5.625"/><path style="fill:none;stroke:#fff;stroke-linecap:round;stroke-linejoin:round;stroke-width:2px" d="M25.375 11 6.625 21"/><path transform="rotate(-24.299 8 19.732)" style="fill:url(#d3mz3j12ha)" d="M3.829 17.716h8.343v4.029H3.829z"/><path transform="rotate(159.112 23.95 12.447)" style="fill:url(#zokr6albnb)" d="M19.779 10.432h8.343v4.029h-8.343z"/><path transform="rotate(-20.888 15.999 15.79)" d="M10.907 12.29h10.187v7H10.907z"/><path transform="rotate(-151.559 10 25.76)" style="fill:url(#2xlppce0bc)" d="M5.594 23.819h8.813v3.882H5.594z"/><path transform="rotate(28.441 22.677 5.999)" style="fill:url(#bpveeow57d)" d="M18.27 3.946h8.813v4.109H18.27z"/></g></mask></defs><path d="M21 13.691v4.619c0 .357-.19.688-.5.866l-4 2.31a.998.998 0 0 1-1 0l-4-2.31a1 1 0 0 1-.5-.866v-4.619c0-.357.19-.688.5-.866l4-2.31a.998.998 0 0 1 1 0l4 2.31a1 1 0 0 1 .5.866zm-2 4.042v-3.465l-3-1.732-3 1.732v3.465l3 1.732 3-1.732z"/><path d="M0 0h32v32H0z" style="mask:url(#k2w5tx0aee)"/></svg>